<svg fill="none" height="40" viewBox="0 0 30 40" width="30" xmlns="http://www.w3.org/2000/svg"><path d="m17.2982 0c-.4547 6.36533-.744 10.168-.868 11.408-.496 6.4893-.837 11.4183-1.023 14.787s-.2997 7.2437-.341 11.625c3.1413-8.06 6.9233-14.3013 11.346-18.724l2.914 2.852c-4.6294 3.844-9.4034 9.672-14.322 17.484h-.682c-4.91869-7.812-9.69269-13.64-14.32202834-17.484l2.91399834-2.852c4.42267 4.4227 8.20463 10.664 11.34603 18.724-.0414-5.084-.186-9.6927-.434-13.826s-.6407-9.548-1.178-16.244c-.0827-.95067-.1757-2.05633-.279-3.317-.1034-1.26067-.217-2.73833-.341-4.433z" fill="#2a4831"/></svg>