<svg width="30" height="40" viewBox="0 0 30 40" fill="none" xmlns="http://www.w3.org/2000/svg">
<path d="M17.2982 0C16.8435 6.36533 16.5542 10.168 16.4302 11.408C15.9342 17.8973 15.5932 22.8263 15.4072 26.195C15.2212 29.5637 15.1075 33.4387 15.0662 37.82C18.2075 29.76 21.9895 23.5187 26.4122 19.096L29.3262 21.948C24.6968 25.792 19.9228 31.62 15.0042 39.432H14.3222C9.40351 31.62 4.62951 25.792 0.000171661 21.948L2.91417 19.096C7.33684 23.5187 11.1188 29.76 14.2602 37.82C14.2188 32.736 14.0742 28.1273 13.8262 23.994C13.5782 19.8607 13.1855 14.446 12.6482 7.75C12.5655 6.79933 12.4725 5.69367 12.3692 4.433C12.2658 3.17233 12.1522 1.69467 12.0282 0L17.2982 0Z" fill="#A86464"/>
</svg>
